<svg width="181" height="181" viewBox="0 0 181 181" fill="none" xmlns="http://www.w3.org/2000/svg">
<circle cx="90.8117" cy="90.8117" r="72.7793" fill="#2563EA"/>
<path d="M145.24 111.899C148.836 113.292 150.654 117.359 148.886 120.785C143.882 130.48 136.512 138.802 127.413 144.954C116.378 152.413 103.328 156.323 90.0096 156.16C76.6913 155.996 63.7409 151.767 52.8929 144.039C43.9473 137.666 36.7835 129.165 32.0195 119.351C30.3356 115.882 32.2531 111.861 35.8817 110.557V110.557C39.5103 109.253 43.4681 111.167 45.2519 114.585C48.9855 121.74 54.3684 127.946 60.9947 132.666C69.5249 138.743 79.7083 142.069 90.1809 142.197C100.654 142.326 110.916 139.251 119.592 133.386C126.332 128.829 131.866 122.757 135.774 115.696C137.641 112.323 141.645 110.506 145.24 111.899V111.899Z" fill="white"/>
<path d="M32.0721 88.2182C28.4548 88.0585 25.6182 84.9878 26.1394 81.4048C27.1402 74.5246 29.2346 67.8338 32.3559 61.5899C35.4771 55.346 39.5721 49.6554 44.475 44.7258C47.0283 42.1586 51.1869 42.5848 53.4855 45.3824V45.3824C55.784 48.18 55.3439 52.2857 52.856 54.9164C49.3407 58.6334 46.3822 62.8555 44.0841 67.4528C41.7859 72.0501 40.1842 76.9504 39.3206 81.993C38.7093 85.5618 35.6893 88.3779 32.0721 88.2182V88.2182Z" fill="white"/>
<path d="M63.1562 39.2481C61.3704 35.9185 62.6117 31.7352 66.1097 30.3071C72.7822 27.5829 79.8744 25.9752 87.1012 25.5642C94.3281 25.1533 101.557 25.9466 108.495 27.8967C112.132 28.9191 113.84 32.9347 112.443 36.4453V36.4453C111.046 39.9559 107.073 41.6213 103.409 40.7002C98.3492 39.4283 93.113 38.9267 87.878 39.2244C82.6431 39.5221 77.4975 40.614 72.6146 42.4514C69.0784 43.782 64.942 42.5777 63.1562 39.2481V39.2481Z" fill="white"/>
</svg>
